PathFileType	4	(X/Y/Z)
DataRate	CameraRate	NumFrames	NumMarkers	Units	OrigDataRate	OrigDataStartFrame	OrigNumFrames	
  120.0	  120.0	    5	     56	     mm	  120.0	      270	    431
Frame#	Time	LASI			RASI			LPSI			RPSI			RTH1			RTH2			RTH3			RLFC			RMFC			LTH1			LTH2			LTH3			LLFC			LMFC			RTB1			RTB2			RTB3			RLMAL			RMMAL			LTB1			LTB2			LTB3			LMMAL			LLMAL			RCAL			RTOE			RMT5			LCAL			LTOE			LMT5			LACR			RACR			CLAV			C7			LASH			LPSH			RASH			RPSH			RUA1			RUA2			RUA3			RLEL			RMEL			LUA1			LUA2			LUA3			LLEL			LMEL			RFAsuperior			RFAradius			RFAulna			LFAsuperior			LFAradius			LFAulna			RHJC			LHJC			
		X1	Y1	Z1	X2	Y2	Z2	X3	Y3	Z3	X4	Y4	Z4	X5	Y5	Z5	X6	Y6	Z6	X7	Y7	Z7	X8	Y8	Z8	X9	Y9	Z9	X10	Y10	Z10	X11	Y11	Z11	X12	Y12	Z12	X13	Y13	Z13	X14	Y14	Z14	X15	Y15	Z15	X16	Y16	Z16	X17	Y17	Z17	X18	Y18	Z18	X19	Y19	Z19	X20	Y20	Z20	X21	Y21	Z21	X22	Y22	Z22	X23	Y23	Z23	X24	Y24	Z24	X25	Y25	Z25	X26	Y26	Z26	X27	Y27	Z27	X28	Y28	Z28	X29	Y29	Z29	X30	Y30	Z30	X31	Y31	Z31	X32	Y32	Z32	X33	Y33	Z33	X34	Y34	Z34	X35	Y35	Z35	X36	Y36	Z36	X37	Y37	Z37	X38	Y38	Z38	X39	Y39	Z39	X40	Y40	Z40	X41	Y41	Z41	X42	Y42	Z42	X43	Y43	Z43	X44	Y44	Z44	X45	Y45	Z45	X46	Y46	Z46	X47	Y47	Z47	X48	Y48	Z48	X49	Y49	Z49	X50	Y50	Z50	X51	Y51	Z51	X52	Y52	Z52	X53	Y53	Z53	X54	Y54	Z54	X55	Y55	Z55	X56	Y56	Z56	

270	2.25000	889.99448	1030.96022	-613.64698	898.59632	1024.25479	-376.71612	731.36257	1056.12063	-541.23942	729.07297	1053.81180	-442.64392	816.72042	871.34135	-302.04043	879.41577	738.67905	-303.74918	796.71918	612.00875	-313.66226	812.72410	516.44740	-304.28688	800.39800	503.33346	-428.73924	828.33407	850.31951	-683.50433	879.89324	740.97278	-683.22004	804.09987	627.30326	-665.53021	822.59878	519.06622	-669.58272	813.33446	504.12530	-550.90874	838.27809	372.18120	-338.92795	791.84518	329.48086	-268.51405	812.62486	254.07862	-322.36233	740.93552	140.09430	-266.90681	775.75158	124.22197	-345.09685	848.27979	393.93233	-627.16377	792.24913	337.06968	-708.77954	819.25772	229.88708	-655.73828	786.05609	122.38327	-627.43689	761.69772	126.22011	-710.21402	690.04153	105.78305	-301.94921	897.14924	73.48306	-315.96499	874.28433	64.04997	-222.69753	703.80146	107.63940	-672.08429	909.35944	77.86983	-661.75369	890.98076	64.18198	-751.89263	790.10053	1494.50324	-658.93894	789.38774	1491.29742	-312.26146	858.01113	1482.07649	-461.80487	732.53230	1528.20496	-490.37794	858.31235	1453.84765	-637.43797	734.07378	1441.52810	-677.75139	853.09459	1459.31454	-337.01434	722.35681	1438.59097	-309.51821	843.06919	1442.91317	-202.06262	816.07302	1385.47783	-175.22052	900.37828	1423.58753	-139.09707	944.00304	1402.07349	-80.58953	946.67741	1321.27072	-99.52362	839.81979	1431.96750	-770.31743	856.86274	1381.19473	-817.45665	931.65567	1423.02877	-805.46634	976.05580	1395.99557	-880.43913	954.74077	1320.71964	-859.06522	1065.69013	1413.45391	-121.39761	1180.22655	1379.03032	-175.88865	1186.93358	1382.74005	-104.87392	1102.94963	1399.38066	-842.56081	1196.03552	1347.07068	-767.71732	1213.62335	1371.44489	-830.37523	808.37635	994.03064	-429.27510	822.49268	979.77566	-556.44152	
271	2.25833	889.99161	1030.97038	-613.66066	898.62937	1024.25367	-376.73700	731.36982	1056.11535	-541.25699	729.12225	1053.88948	-442.59701	816.79636	871.42022	-302.04979	879.38344	738.52284	-303.85336	796.75085	611.91736	-313.78227	812.78366	516.44741	-304.29477	800.50235	503.34586	-428.74583	828.32076	850.31857	-683.52913	879.86335	740.98124	-683.22835	804.09621	627.30160	-665.53844	822.58821	519.06919	-669.61079	813.34827	504.13193	-550.90526	838.33317	372.17843	-338.92027	791.88429	329.47919	-268.52158	812.64945	254.07004	-322.35888	740.92427	140.09027	-266.99533	775.74704	124.21758	-345.05750	848.28171	393.93488	-627.16991	792.23700	337.06875	-708.79224	819.25576	229.88709	-655.74563	786.05669	122.39023	-627.43665	761.69683	126.21957	-710.20895	690.04201	105.78458	-301.95452	897.15419	73.47572	-315.96929	874.28979	64.04317	-222.70989	703.80552	107.64701	-672.09031	909.36597	77.87273	-661.75077	890.98357	64.18099	-751.89312	790.15871	1494.50736	-658.91556	789.42468	1491.29633	-312.23413	858.06652	1482.12867	-461.69197	732.56363	1528.17845	-490.35987	858.33764	1453.85355	-637.41084	734.10520	1441.54106	-677.70203	853.12481	1459.26338	-337.06628	722.39153	1438.58953	-309.50801	843.11247	1442.91025	-202.02700	816.10652	1385.47593	-175.19395	900.41021	1423.58685	-139.05570	944.03011	1402.06954	-80.55542	946.68792	1321.27254	-99.48930	839.84903	1431.97995	-770.29728	856.89786	1381.21251	-817.42609	931.69213	1423.02683	-805.44682	976.08585	1396.01289	-880.39474	954.75716	1320.72884	-859.05408	1065.72875	1413.42229	-121.34299	1180.26618	1378.95520	-175.85132	1186.96071	1382.66141	-104.84779	1102.98495	1399.35379	-842.59196	1196.02431	1346.88076	-767.76406	1213.65930	1371.43445	-830.45262	808.39942	994.04900	-429.27778	822.48898	979.79701	-556.44759	
272	2.26667	889.99726	1030.97814	-613.66723	898.66145	1024.25120	-376.76177	731.38853	1056.11010	-541.28242	729.15984	1053.93770	-442.57304	816.89398	871.51774	-302.06505	879.36761	738.39881	-303.93122	796.78677	611.87913	-313.83354	812.83387	516.44302	-304.30423	800.60613	503.34294	-428.75619	828.31118	850.31739	-683.54481	879.83753	740.98578	-683.23682	804.08254	627.30503	-665.53380	822.57289	519.08227	-669.66343	813.35707	504.13932	-550.89688	838.37699	372.17667	-338.92545	791.94061	329.57285	-268.41172	812.66703	254.06307	-322.35642	740.92774	140.10186	-266.99591	775.76964	124.25192	-345.14460	848.28019	393.93522	-627.17367	792.22067	337.06863	-708.80189	819.25396	229.88328	-655.74861	786.05315	122.39605	-627.44488	761.69587	126.21757	-710.20263	690.04035	105.78124	-301.96173	897.15906	73.47051	-315.97141	874.29817	64.04339	-222.71364	703.80798	107.64192	-672.09274	909.36764	77.87589	-661.74872	890.98572	64.17901	-751.89241	790.19945	1494.51304	-658.89597	789.45996	1491.29860	-312.19625	858.11570	1482.16260	-461.61446	732.58419	1528.16177	-490.33103	858.35707	1453.85535	-637.39645	734.13568	1441.55240	-677.65329	853.15762	1459.21101	-337.11543	722.42458	1438.58628	-309.49583	843.14881	1442.90286	-201.99474	816.13498	1385.46375	-175.17298	900.43439	1423.58951	-139.00164	944.04877	1402.06618	-80.52586	946.69858	1321.27041	-99.45236	839.87979	1431.99757	-770.27274	856.92652	1381.23350	-817.38418	931.73322	1423.02651	-805.42111	976.11267	1396.03247	-880.35053	954.77704	1320.73529	-859.04695	1065.76093	1413.38932	-121.30796	1180.29800	1378.88784	-175.83139	1186.98345	1382.60534	-104.80663	1103.01814	1399.32123	-842.64289	1196.01192	1346.70084	-767.79806	1213.68482	1371.42955	-830.50508	808.42177	994.05945	-429.28735	822.49869	979.81027	-556.45879	
273	2.27500	890.00827	1030.98207	-613.68453	898.69571	1024.24768	-376.78547	731.42163	1056.10677	-541.30903	729.18630	1053.92651	-442.58871	816.97408	871.58035	-302.08147	879.38658	738.34601	-303.94887	796.83963	611.91958	-313.78577	812.87772	516.43729	-304.31415	800.68394	503.32403	-428.76394	828.30571	850.31850	-683.54994	879.82248	740.98290	-683.25173	804.06128	627.31330	-665.52279	822.55362	519.09331	-669.70704	813.35314	504.14324	-550.89396	838.40710	372.17266	-338.94092	792.00221	329.69754	-268.25970	812.67922	254.05836	-322.35302	740.94861	140.12099	-266.91118	775.80001	124.29582	-345.27603	848.27342	393.93421	-627.17782	792.20447	337.07083	-708.80731	819.25275	229.88038	-655.74957	786.04640	122.39614	-627.45911	761.69611	126.21595	-710.19891	690.04039	105.77511	-301.96687	897.16370	73.46783	-315.96888	874.31025	64.05076	-222.70792	703.80576	107.61437	-672.07046	909.36324	77.87826	-661.74740	890.98527	64.17524	-751.89046	790.21786	1494.52115	-658.87612	789.49496	1491.29929	-312.15004	858.14923	1482.15308	-461.59838	732.59400	1528.16206	-490.29610	858.37280	1453.85295	-637.39575	734.16380	1441.56462	-677.62837	853.20256	1459.18640	-337.10063	722.45776	1438.57881	-309.47414	843.17961	1442.89089	-201.95825	816.15986	1385.44604	-175.14621	900.45025	1423.59175	-138.94474	944.06074	1402.06045	-80.50369	946.70709	1321.26285	-99.41067	839.90973	1432.02022	-770.24613	856.94638	1381.25463	-817.34144	931.77331	1423.03137	-805.38879	976.13653	1396.04887	-880.32358	954.79776	1320.73882	-859.04454	1065.78718	1413.35519	-121.28453	1180.32308	1378.80422	-175.78497	1187.00410	1382.56664	-104.74729	1103.04327	1399.28747	-842.69005	1196.01273	1346.62292	-767.78459	1213.69972	1371.42245	-830.52527	808.44802	994.05507	-429.30908	822.52618	979.80849	-556.48038	
274	2.28333	890.01881	1030.98220	-613.71723	898.73543	1024.24381	-376.80232	731.46108	1056.10818	-541.32866	729.21102	1053.87492	-442.62782	817.02196	871.59048	-302.09260	879.43595	738.35038	-303.92250	796.90625	612.00538	-313.68305	812.91627	516.43223	-304.32243	800.72297	503.30066	-428.76585	828.30666	850.32281	-683.54835	879.81949	740.97300	-683.28011	804.03790	627.32067	-665.51764	822.53336	519.09446	-669.71608	813.33818	504.14162	-550.90280	838.42684	372.16452	-338.95990	792.05381	329.77948	-268.15530	812.68883	254.05559	-322.34813	740.97762	140.13695	-266.79007	775.82674	124.33300	-345.40305	848.26076	393.93216	-627.18193	792.19120	337.07375	-708.80709	819.25075	229.88159	-655.74892	786.03972	122.38912	-627.47262	761.69595	126.21558	-710.19946	690.04382	105.76791	-301.96826	897.16721	73.46763	-315.96315	874.32410	64.06149	-222.69717	703.79876	107.56800	-672.00838	909.35516	77.87905	-661.74740	890.98059	64.17026	-751.88888	790.22113	1494.53237	-658.85422	789.52860	1491.29273	-312.10666	858.16923	1482.11163	-461.62553	732.59946	1528.17802	-490.26440	858.38658	1453.84946	-637.40292	734.18842	1441.57889	-677.63374	853.25822	1459.19644	-337.01387	722.49073	1438.56483	-309.44327	843.20511	1442.87473	-201.91473	816.18343	1385.42431	-175.11203	900.45962	1423.58796	-138.89676	944.06751	1402.04971	-80.48648	946.71136	1321.25133	-99.36615	839.93433	1432.04357	-770.22323	856.95865	1381.27823	-817.31340	931.80598	1423.04255	-805.35273	976.15768	1396.05777	-880.32355	954.81547	1320.74128	-859.04641	1065.80814	1413.32028	-121.26270	1180.34294	1378.69497	-175.69973	1187.02484	1382.53579	-104.67595	1103.06012	1399.26078	-842.70663	1196.03082	1346.68274	-767.71364	1213.70855	1371.41264	-830.50437	808.47938	994.04178	-429.33622	822.56273	979.79655	-556.50671	
